<svg width="123" height="290" viewBox="0 0 123 290" fill="none" xmlns="http://www.w3.org/2000/svg">
<path d="M43.3203 46.9974L57.6432 47.2208L63.0143 19.2464L66.3712 47.4447L82.9321 48.5636C82.9321 48.5636 99.7168 50.1301 108.221 31.3313L122.32 5.14737L121.649 56.6203C121.649 56.6203 123.887 71.3908 107.102 83.9233C90.3174 96.4559 79.5752 104.513 79.5752 104.513L76.2183 289.591H37.9492L40.8586 127.116L10.87 102.275C10.87 102.275 -0.543588 92.6514 0.575379 67.81C1.69438 42.9687 1.02302 0 1.02302 0C1.02302 0 18.0427 33.1307 18.9922 35.0296C20.4955 37.4824 26.3119 46.5498 43.3203 46.9974Z" fill="#778a90"/>
</svg>
